<?xml version="1.0" standalone="no"?>
<!DOCTYPE svg PUBLIC "-//W3C//DTD SVG 20010904//EN"
 "http://www.w3.org/TR/2001/REC-SVG-20010904/DTD/svg10.dtd">
<svg version="1.0" xmlns="http://www.w3.org/2000/svg"
 width="200.000000pt" height="200.000000pt" viewBox="0 0 200.000000 200.000000"
 preserveAspectRatio="xMidYMid meet">
<metadata>
Created by potrace 1.14, written by Peter Selinger 2001-2017
</metadata>
<g transform="translate(0.000000,200.000000) scale(0.100000,-0.100000)"
fill="#000000" stroke="none">
<path d="M923 1700 c-47 -7 -76 -27 -69 -47 5 -13 -13 -17 -59 -14 -11 1 -33
-11 -49 -28 -24 -25 -32 -28 -58 -21 -58 17 -95 -14 -124 -105 -9 -27 -22 -57
-29 -65 -44 -52 -119 -256 -130 -355 -9 -76 -9 -70 -1 -135 11 -92 21 -75 21
38 1 88 6 122 28 192 15 47 32 92 38 100 8 12 9 11 5 -5 -39 -140 -21 -322 39
-408 17 -25 19 -19 5 17 -6 17 -6 26 0 26 6 0 10 -6 10 -13 0 -7 12 -25 27
-38 28 -26 83 -54 83 -43 0 4 -16 33 -36 65 -19 32 -37 66 -39 76 -2 10 -9 33
-14 52 -15 50 -6 49 13 -1 18 -44 55 -102 62 -95 2 2 -5 21 -16 42 -11 22 -20
46 -20 55 0 9 -5 21 -10 26 -6 6 -13 40 -17 76 -5 58 -3 70 20 108 l25 43 4
-29 c2 -21 10 -30 28 -34 17 -4 26 -14 28 -30 9 -70 65 -195 108 -241 24 -25
28 -68 11 -96 -6 -9 21 -42 30 -35 1 1 14 2 28 2 18 0 25 -5 25 -19 0 -23 -37
-71 -53 -68 -6 1 -11 -4 -12 -11 0 -18 -34 -42 -57 -42 -12 0 -17 -7 -15 -21
2 -17 -9 -25 -58 -43 -33 -13 -66 -21 -72 -19 -24 8 -13 -25 24 -74 45 -59 78
-89 118 -104 88 -34 102 -43 123 -80 13 -22 20 -44 17 -49 -8 -13 32 -47 53
-45 21 1 51 17 51 27 0 4 -9 24 -19 45 -20 41 -18 45 33 57 27 6 27 6 21 -36
-4 -24 -7 -47 -8 -52 -1 -10 33 -17 55 -10 16 4 25 23 35 68 7 30 24 46 49 46
12 0 34 9 49 21 14 11 30 18 35 15 8 -6 63 31 69 46 2 5 9 8 15 8 15 0 49 59
41 71 -3 5 -12 9 -21 9 -18 0 -86 31 -94 43 -3 5 -9 8 -13 8 -3 -1 -6 1 -6 4
0 7 3 7 20 1 28 -9 80 -13 80 -5 0 4 12 10 27 14 26 6 27 7 9 20 -10 8 -15 18
-12 24 3 5 -5 18 -19 29 -14 11 -25 24 -25 30 0 5 -16 23 -35 38 -20 16 -57
64 -82 107 -33 57 -55 83 -80 95 -18 9 -32 20 -30 26 3 9 41 36 76 52 7 4 22
25 32 48 l20 41 -3 -73 c-2 -52 0 -71 9 -68 8 3 9 -4 3 -26 -8 -25 -7 -29 7
-24 12 5 14 0 11 -24 -4 -23 -2 -27 9 -19 23 20 38 102 42 231 1 11 6 15 16
12 19 -8 19 13 -1 51 -8 16 -18 48 -21 72 -5 39 -4 43 16 43 31 0 36 25 12 65
-22 39 -17 44 16 16 29 -24 46 -91 44 -171 -1 -63 -3 -81 -16 -165 l-6 -40 20
47 c23 54 36 123 33 186 -1 50 14 47 24 -5 12 -64 11 -207 -2 -245 -7 -21 -11
-38 -9 -38 2 0 -2 -19 -10 -42 -13 -38 -13 -41 0 -24 19 25 53 131 57 183 3
24 8 46 13 50 12 12 -3 -196 -18 -252 -8 -27 -21 -67 -30 -87 -9 -21 -13 -38
-9 -38 15 0 69 59 82 89 7 17 16 29 20 26 4 -3 10 10 13 28 3 17 13 52 22 77
18 46 25 170 14 241 -16 91 -60 192 -113 257 -22 28 -76 93 -119 146 -43 52
-88 98 -100 102 -26 9 -57 6 -74 -8 -7 -6 -23 -7 -35 -4 -46 14 -88 18 -88 7
0 -16 -59 -4 -78 17 -14 15 -25 17 -59 12z m-98 -693 c6 -12 28 -32 50 -44
l39 -22 -26 -10 c-15 -5 -31 -17 -36 -27 -7 -13 -11 -14 -18 -3 -4 8 -9 20
-10 29 -1 8 -9 36 -17 62 -15 48 -2 60 18 15z m340 -253 c15 -19 28 -41 29
-49 1 -7 16 -28 34 -46 32 -33 34 -49 3 -49 -19 0 -65 43 -56 52 4 3 -5 15
-19 26 -20 16 -26 29 -26 61 0 23 2 41 4 41 2 0 16 -16 31 -36z"/>
</g>
</svg>
